<?xml version="1.0" encoding="utf-8"?>
<!-- Generator: Adobe Illustrator 17.0.0, SVG Export Plug-In . SVG Version: 6.00 Build 0)  -->
<svg version="1.2" baseProfile="tiny" id="Layer_1" xmlns="http://www.w3.org/2000/svg" xmlns:xlink="http://www.w3.org/1999/xlink"
	 x="0px" y="0px" width="118px" height="49px" viewBox="0 0 118 49" xml:space="preserve">
<g>
	<path fill="#FFFFFF" d="M46.249,28.397c-2.588,4.505-10.685,9.214-15.794,8.85c-3.024-0.188-4.976-1.447-5.897-3.17
		c-7.329,2.585-12.611,6.479-20.813,13.569c-0.469,0.523-2.425,0.551-2.558-1.863C1.601,33.82,5.734,25.312,9.55,19.412
		c3.887-5.868,7.457-9.126,8.399-9.865c1.82-1.431,7.571-0.507,4.79,1.978c-3.771,3.597-13.978,13.682-15.706,28.14
		c8.373-5.332,16.76-7.957,22.688-9.116c2.365-0.462,2.962,0.005,3.178,0.419c0.213,0.41-0.173,0.883-1.638,1.214
		c-0.681,0.154-1.342,0.313-1.985,0.477c0.729,1.767,3.023,2.568,8.267,0.172c5.285-2.559,7.019-4.612,8.395-6.019
		C46.615,26.101,47.2,26.8,46.249,28.397z M48.585,16.416c0.275,1.987,0.015,2.996-1.274,4.796c-0.69,0.958-1.534,1.703-2.397,2.336
		c-1.745,1.251-3.608,2.017-5.324,2.559c-1.721,0.538-3.324,0.82-4.684,0.975c-1.364,0.149-2.496,0.16-3.298,0.126
		c-0.421-0.021-1.369-0.126-1.444-0.142c-0.473,0.799-0.878,1.848-1.061,2.898c-1.576,0.326-3.312,0.754-5.163,1.303
		c0.173-4.171,3.97-9.494,6.458-11.953c2.633-2.491,7.912-6.665,12.684-6.604C47.881,12.761,48.514,15.95,48.585,16.416z
		 M42.251,16.365c-5.607,1.48-9.371,6.17-9.917,7.043c0,0,0.629,0.015,1.323-0.031c1.163-0.082,2.576-0.263,4.099-0.661
		c1.515-0.398,3.168-0.994,4.648-1.937c0.69-0.446,1.353-0.982,1.888-1.602C45.664,17.637,44.333,15.74,42.251,16.365z
		 M116.445,38.108c-0.454-0.536-1.1-0.642-1.441-0.239c-0.342,0.404-0.25,1.165,0.204,1.701s1.029,0.715,1.37,0.311
		C116.92,39.477,116.899,38.643,116.445,38.108z M111.597,35.061c-10.666-5.545-19.767-4.57-26.219-4.335
		c3.983-7.042,12.531-13.695,22.974-16.681c2.653-0.759,3.155-1.219,2.852-2.181c-0.387-1.23-3.303-2.472-4.706-2.07
		c-17.12,4.9-25.597,18.638-27.226,23.016c-0.538,1.646,0.51,2.528,1.958,2.246c16.844-3.276,28.46,1.209,31.839,2.822
		C114.386,38.506,114.261,36.471,111.597,35.061z M77.383,31.506c-3.369,1.987-7.26,3.129-10.403,3.563
		c-4.085,0.571-9.989-0.403-8.311-6.984c0.936-3.738,4.302-7.022,6.677-8.77c3.189-2.28,8.438-5.159,14.031-4.769
		c5.875,0.379,7.078,4.357,4.988,7.32c-0.813,1.139-1.888,1.961-2.969,2.592c-2.184,1.249-4.437,1.786-6.433,2.076
		c-2.007,0.281-3.791,0.294-5.27,0.207c-1.479-0.087-2.654-0.274-3.462-0.434c-0.409-0.089-1.625-0.416-1.812-0.518
		c-0.009,0.013-0.02,0.025-0.029,0.038c-0.631,0.922-1.146,1.892-1.445,3.018c-1.525,4.922,6.778,4.543,14.422,1.103
		C80.149,28.685,80.456,29.672,77.383,31.506z M68.013,22.326c0.682,0.413,4.085,0.927,6.127,0.726
		c2.22-0.213,4.064-0.537,6.04-1.723c1.972-1.197,1.359-3.362-0.847-3.436C75.569,17.736,70.444,20.171,68.013,22.326z
		 M67.434,14.268c0.759-0.649,1.548-1.259,2.327-1.877c0.79-0.605,1.579-1.207,2.389-1.779c0.795-0.592,1.627-1.129,2.443-1.687
		c1.21-0.763,5.87-4.133,12.77-5.867c1.028-0.258,2.05-0.362,1.948-1.123c-0.112-0.819-1.176-1.185-2.845-0.748
		c-13.376,3.592-25.91,12.831-32.856,23.285c-0.043,0.071-0.086,0.141-0.128,0.212c0-0.08-0.001-0.16-0.001-0.24
		c-0.025-1.599-0.069-3.7,0.673-6.743c0.731-3.045,1.455-4.66,3.002-6.974c0.949-1.432,0.739-2.312-0.165-2.717
		c-1.289-0.577-2.611-0.384-3.566,1.157c-4.637,7.434-4.503,20.093-2.447,24.54c0.012,0.026,0.024,0.053,0.036,0.079
		c0.163,0.357,0.473,0.67,0.886,0.847c0.793,0.339,1.66,0.041,1.925-0.659c0.413-1.09,0.71-2.009,1.1-2.977
		C57.401,24.78,61.53,19.118,67.434,14.268z"/>
</g>
</svg>
