<?xml version="1.0" encoding="utf-8"?>
<!-- Generator: Adobe Illustrator 17.0.0, SVG Export Plug-In . SVG Version: 6.00 Build 0)  -->
<svg version="1.2" baseProfile="tiny" id="Layer_1" xmlns="http://www.w3.org/2000/svg" xmlns:xlink="http://www.w3.org/1999/xlink"
	 x="0px" y="0px" width="482px" height="109px" viewBox="0 0 482 109" xml:space="preserve">
<path fill="#4D4D4D" d="M322.974,46.692h1.701v-4.698v-4.719h-1.701v-1.294c0,0,5.439,0,5.752,0c2.756,0,3.967,1.253,3.967,3.111
	c0,1.618-0.918,2.736-2.704,3.101l2.443,4.521h1.524v1.305h-2.641l-2.955-5.617h-2.015c0,0.282,0,4.291,0,4.291l1.629,0.01v1.315
	h-5.001V46.692z M328.674,41.054c1.817,0,2.297-0.991,2.297-1.963c0-1.18-0.846-1.796-2.161-1.796c-0.365,0-2.464,0.01-2.464,0.01
	v3.748H328.674z M340.814,46.692h1.629v-4.698v-4.719h-1.629v-1.294h5.199h4.938v3.351h-1.367v-2.025h-5.481v3.874h3.779l0.136-1.19
	h0.908v3.748h-0.919l-0.136-1.211h-3.748v4.165h5.481v-2.099h1.347v3.425h-4.938h-5.199V46.692z M358.842,42.015
	c0-3.685,2.171-6.222,5.961-6.222c1.691,0,3.111,0.647,4.04,1.556v-1.368h1.357v3.644h-1.305c-0.804-1.608-2.276-2.422-4.009-2.422
	c-2.631,0-4.197,2.046-4.197,4.76c0,2.683,1.639,4.803,4.26,4.803c1.743,0,3.79-0.721,4.165-3.111l1.41,0.741
	c-0.512,2.308-2.61,3.821-5.69,3.821C361.149,48.216,358.842,45.69,358.842,42.015z M384.302,35.793
	c3.863,0,6.222,2.756,6.222,6.222c0,3.455-2.36,6.201-6.222,6.201c-3.863,0-6.201-2.736-6.201-6.201
	C378.101,38.528,380.45,35.793,384.302,35.793z M384.302,46.787c2.652,0,4.364-2.13,4.364-4.771c0-2.683-1.712-4.813-4.364-4.813
	c-2.631,0-4.354,2.129-4.354,4.813C379.949,44.656,381.671,46.787,384.302,46.787z M397.893,46.692h1.701v-4.698v-4.719h-1.701
	v-1.294c0,0,5.439,0,5.752,0c2.756,0,3.967,1.253,3.967,3.111c0,1.618-0.918,2.736-2.704,3.101l2.443,4.521h1.524v1.305h-2.641
	l-2.955-5.617h-2.015c0,0.282,0,4.291,0,4.291l1.629,0.01v1.315h-5.001V46.692z M403.593,41.054c1.817,0,2.297-0.991,2.297-1.963
	c0-1.18-0.846-1.796-2.161-1.796c-0.365,0-2.464,0.01-2.464,0.01v3.748H403.593z M415.722,46.713l1.681-0.021
	c0,0-0.021-4.374-0.021-4.698c0-0.324,0.021-4.688,0.021-4.688l-1.681-0.031v-1.294c0,0,5.408-0.01,5.784-0.01
	c4.771,0,6.118,3.101,6.118,5.92c0,3.695-1.785,6.128-6.264,6.128c-0.366,0-5.638,0-5.638,0V46.713z M419.073,41.994
	c0,0.272,0.021,4.698,0.021,4.698s1.994,0.01,2.328,0.01c3.508,0,4.479-2.171,4.479-4.75c0-2.641-1.19-4.656-4.437-4.656
	c-0.334,0-2.391,0.01-2.391,0.01V41.994z M435.243,46.692h1.399v-4.698v-4.719h-1.399v-1.294h4.468v1.326h-1.378v4.688v4.709h1.378
	v1.315h-4.468V46.692z M447.362,46.692h1.764v-4.698v-4.719h-1.764v-1.294h3.988l5.721,9.689v-8.373h-1.723v-1.315h4.928v1.326
	h-1.806v5.377v5.44h-1.806l-6.139-10.471v9.051h1.764v1.315h-4.927V46.692z M477.51,37.348v-1.368h1.357v3.644h-1.294
	c-0.814-1.608-2.287-2.422-4.009-2.422c-2.777,0-4.354,2.015-4.354,4.771c0,2.746,1.556,4.803,4.51,4.803
	c2.756,0,3.821-1.159,3.988-3.31h-2.37V42.14h4.249c-0.094,4.385-2.6,6.076-5.878,6.076c-5.21,0-6.358-3.863-6.358-6.254
	c0-2.766,1.556-6.17,6.118-6.17C475.161,35.793,476.592,36.44,477.51,37.348z M324.467,72.1c-0.01,0-0.021,0.835-0.031,0.835
	c-0.042-0.021-1.378-0.031-1.378-0.031v-3.936h1.347c0,0,0.021,0.992,0.021,1.107c0.773,1.138,1.733,1.775,2.986,1.775
	c1.483,0,2.422-0.94,2.422-2.119c0-1.483-1.514-1.838-3.372-2.255c-1.9-0.407-3.487-1.18-3.487-3.435c0-2.14,1.67-3.257,3.769-3.257
	c1.013,0,1.963,0.303,2.756,0.856c0.01,0.01,0.031-0.668,0.031-0.668h1.378v3.414h-1.347c0,0-0.021-0.836-0.021-0.961
	c-0.658-0.866-1.514-1.284-2.683-1.284c-1.556,0-2.36,0.721-2.36,1.712c0,2.453,4.082,1.472,6.013,3.32
	c0.668,0.637,1.044,1.577,1.044,2.537c0,1.984-1.618,3.497-3.999,3.497C326.367,73.207,325.323,72.821,324.467,72.1z
	 M341.399,71.683h1.618v-4.698v-4.698h-2.767v2.85h-1.347v-4.165h4.938h4.948v4.165h-1.368v-2.85h-2.704v4.698v4.709h1.608v1.315
	h-4.927V71.683z M355.856,62.266v-1.294h4.719v1.326h-1.482v6.765c0,1.827,0.939,2.84,2.694,2.84c2.129,0,2.777-1.065,2.777-2.955
	v-6.661h-1.483v-1.315h4.709v1.294l-1.556,0.031c0,0,0.021,6.421,0.021,6.744c0,3.006-1.994,4.165-4.343,4.165
	c-3.716,0-4.51-2.036-4.51-4.186c0-0.324,0.021-6.724,0.021-6.755H355.856z M375.011,71.704l1.681-0.021
	c0,0-0.021-4.374-0.021-4.698c0-0.324,0.021-4.688,0.021-4.688l-1.681-0.031v-1.294c0,0,5.408-0.01,5.784-0.01
	c4.771,0,6.118,3.101,6.118,5.92c0,3.695-1.785,6.128-6.264,6.128c-0.366,0-5.638,0-5.638,0V71.704z M378.362,66.985
	c0,0.272,0.021,4.698,0.021,4.698s1.994,0.01,2.328,0.01c3.508,0,4.479-2.171,4.479-4.75c0-2.641-1.19-4.656-4.437-4.656
	c-0.334,0-2.391,0.01-2.391,0.01V66.985z M394.531,71.683h1.399v-4.698v-4.719h-1.399v-1.294H399v1.326h-1.378v4.688v4.709H399
	v1.315h-4.468V71.683z M412.768,60.784c3.863,0,6.222,2.756,6.222,6.222c0,3.455-2.36,6.201-6.222,6.201s-6.201-2.736-6.201-6.201
	C406.567,63.519,408.916,60.784,412.768,60.784z M412.768,71.777c2.652,0,4.364-2.13,4.364-4.771c0-2.683-1.712-4.813-4.364-4.813
	c-2.631,0-4.354,2.129-4.354,4.813C408.415,69.647,410.138,71.777,412.768,71.777z M103.223,63.294
	c-5.789,10.078-23.905,20.614-35.334,19.799c-6.765-0.42-11.133-3.238-13.193-7.092c-16.397,5.783-28.212,14.495-46.561,30.356
	c-1.048,1.17-5.424,1.233-5.723-4.168C3.338,75.426,12.584,56.391,21.12,43.193c8.696-13.127,16.682-20.417,18.79-22.069
	c4.071-3.201,16.937-1.134,10.716,4.424c-8.437,8.048-31.271,30.609-35.137,62.954c18.732-11.929,37.495-17.801,50.757-20.393
	c5.292-1.034,6.626,0.011,7.109,0.937c0.476,0.918-0.387,1.975-3.664,2.716c-1.524,0.345-3.001,0.7-4.44,1.068
	c1.63,3.954,6.762,5.745,18.493,0.386c11.824-5.726,15.703-10.317,18.781-13.466C104.042,58.158,105.351,59.72,103.223,63.294z
	 M108.448,36.49c0.616,4.446,0.034,6.703-2.849,10.729c-1.543,2.143-3.432,3.81-5.363,5.226c-3.904,2.798-8.071,4.512-11.911,5.725
	c-3.851,1.203-7.436,1.834-10.479,2.182c-3.052,0.333-5.583,0.358-7.377,0.281c-0.943-0.046-3.064-0.282-3.23-0.319
	c-1.059,1.788-1.964,4.133-2.373,6.484c-3.526,0.729-7.41,1.687-11.551,2.916c0.387-9.332,8.882-21.24,14.448-26.74
	c5.89-5.573,17.7-14.911,28.375-14.775C106.873,28.312,108.29,35.448,108.448,36.49z M94.278,36.376
	c-12.545,3.311-20.964,13.802-22.185,15.756c0,0,1.407,0.034,2.959-0.068c2.602-0.183,5.763-0.589,9.169-1.48
	c3.39-0.889,7.087-2.223,10.399-4.334c1.544-0.997,3.027-2.198,4.223-3.584C101.915,39.223,98.935,34.979,94.278,36.376z
	 M260.262,85.018c-1.016-1.198-2.46-1.437-3.224-0.534c-0.764,0.903-0.56,2.606,0.457,3.804c1.016,1.198,2.302,1.599,3.066,0.696
	C261.324,88.081,261.278,86.216,260.262,85.018z M249.416,78.201c-23.862-12.404-44.222-10.224-58.656-9.698
	c8.911-15.755,28.034-30.639,51.396-37.319c5.936-1.697,7.059-2.727,6.381-4.88c-0.865-2.751-7.389-5.529-10.528-4.631
	c-38.3,10.963-57.264,41.697-60.908,51.49c-1.204,3.682,1.142,5.656,4.381,5.024c37.683-7.329,63.67,2.704,71.228,6.314
	C255.656,85.908,255.376,81.356,249.416,78.201z M172.874,70.249c-7.538,4.446-16.242,7.001-23.273,7.97
	c-9.139,1.278-22.348-0.902-18.594-15.623c2.095-8.363,9.624-15.71,14.938-19.62c7.134-5.1,18.877-11.542,31.389-10.668
	c13.143,0.847,15.834,9.747,11.16,16.375c-1.819,2.548-4.225,4.388-6.643,5.798c-4.886,2.793-9.926,3.995-14.391,4.645
	c-4.489,0.629-8.482,0.658-11.789,0.463c-3.308-0.194-5.937-0.614-7.746-0.971c-0.914-0.199-3.636-0.931-4.053-1.159
	c-0.02,0.028-0.045,0.056-0.064,0.085c-1.413,2.062-2.563,4.232-3.233,6.752c-3.411,11.012,15.163,10.163,32.263,2.468
	C179.061,63.938,179.75,66.146,172.874,70.249z M151.911,49.713c1.526,0.924,9.138,2.074,13.707,1.623
	c4.967-0.477,9.091-1.202,13.512-3.855c4.412-2.677,3.039-7.522-1.895-7.687C168.816,39.442,157.351,44.891,151.911,49.713z
	 M150.616,31.685c1.698-1.451,3.462-2.816,5.205-4.2c1.767-1.353,3.533-2.699,5.345-3.979c1.779-1.324,3.641-2.527,5.465-3.775
	c2.707-1.707,13.132-9.247,28.568-13.126c2.3-0.577,4.586-0.809,4.357-2.513c-0.25-1.832-2.631-2.65-6.365-1.674
	c-29.924,8.035-57.965,28.705-73.503,52.093c-0.096,0.158-0.192,0.316-0.287,0.474c-0.001-0.179-0.002-0.358-0.003-0.536
	c-0.055-3.576-0.154-8.277,1.505-15.084c1.636-6.811,3.255-10.425,6.715-15.603c2.122-3.204,1.654-5.172-0.369-6.078
	c-2.883-1.29-5.841-0.859-7.977,2.588c-10.373,16.632-10.074,44.951-5.474,54.9c0.027,0.059,0.054,0.118,0.08,0.177
	c0.365,0.799,1.058,1.5,1.982,1.895c1.774,0.758,3.715,0.091,4.306-1.475c0.924-2.438,1.588-4.494,2.462-6.659
	C128.171,55.201,137.408,42.536,150.616,31.685z M292.029,10.62v87.76 M292.529,10.62h-1v87.76h1V10.62z"/>
</svg>
