<?xml version="1.0" encoding="utf-8"?>
<!-- Generator: Adobe Illustrator 17.0.0, SVG Export Plug-In . SVG Version: 6.00 Build 0)  -->
<!DOCTYPE svg PUBLIC "-//W3C//DTD SVG 1.1//EN" "http://www.w3.org/Graphics/SVG/1.1/DTD/svg11.dtd">
<svg version="1.1" id="Layer_1" xmlns="http://www.w3.org/2000/svg" xmlns:xlink="http://www.w3.org/1999/xlink" x="0px" y="0px"
	 width="780px" height="280px" viewBox="0 0 780 280" enable-background="new 0 0 780 280" xml:space="preserve">
<g>

		<image overflow="visible" opacity="0.25" width="809" height="312" xlink:href="3BB6743203E857D8.png"  transform="matrix(1 0 0 1 -12.5 -26.5)">
	</image>
	<g>
		<path fill="#FFFFFF" d="M324.919,185.426c0-1.249-0.896-1.901-2.289-1.901c-0.387,0-2.609,0.011-2.609,0.011v3.969h2.465
			C324.41,187.504,324.919,186.455,324.919,185.426z M302.06,183.426c-2.786,0-4.61,2.255-4.61,5.096
			c0,2.797,1.824,5.052,4.61,5.052c2.808,0,4.621-2.256,4.621-5.052C306.681,185.681,304.868,183.426,302.06,183.426z
			 M329.356,80.545c-20.303,5.358-33.929,22.339-35.906,25.5c0,0,2.278,0.055,4.79-0.111c4.211-0.297,9.327-0.954,14.84-2.395
			c5.487-1.439,11.47-3.598,16.831-7.015c2.499-1.614,4.899-3.557,6.835-5.801C341.715,85.152,336.893,78.283,329.356,80.545z
			 M444.816,104.758c8.039-0.772,14.714-1.945,21.869-6.238c7.142-4.333,4.919-12.174-3.067-12.44
			c-13.625-0.571-32.181,8.248-40.985,16.052C425.102,103.626,437.422,105.486,444.816,104.758z M481.618,183.525
			c-0.354,0-2.532,0.011-2.532,0.011v4.964c0,0.288,0.022,4.975,0.022,4.975s2.111,0.011,2.465,0.011
			c3.715,0,4.743-2.299,4.743-5.03C486.316,185.658,485.056,183.525,481.618,183.525z M341.41,183.525
			c-0.354,0-2.532,0.011-2.532,0.011v4.964c0,0.288,0.022,4.975,0.022,4.975s2.111,0.011,2.465,0.011
			c3.715,0,4.743-2.299,4.743-5.03C346.108,185.658,344.848,183.525,341.41,183.525z M245.589,185.426
			c0-1.249-0.896-1.901-2.289-1.901c-0.387,0-2.609,0.011-2.609,0.011v3.969h2.465C245.08,187.504,245.589,186.455,245.589,185.426z
			 M515.519,183.426c-2.786,0-4.61,2.255-4.61,5.096c0,2.797,1.824,5.052,4.61,5.052c2.808,0,4.621-2.256,4.621-5.052
			C520.14,185.681,518.326,183.426,515.519,183.426z M-10.89-25.5V280h802V-25.5H-10.89z M248.75,194.878h-2.797l-3.129-5.948
			h-2.134c0,0.299,0,4.544,0,4.544l1.725,0.011v1.393h-5.295v-1.404h1.802v-4.975v-4.997h-1.802v-1.371c0,0,5.759,0,6.091,0
			c2.918,0,4.201,1.326,4.201,3.294c0,1.714-0.973,2.897-2.863,3.283l2.587,4.787h1.614L248.75,194.878L248.75,194.878z
			 M266.745,185.681h-1.448v-2.145h-5.804v4.102h4.002l0.144-1.26h0.962v3.969h-0.973l-0.144-1.282h-3.969v4.411h5.803v-2.222h1.426
			v3.626h-5.229h-5.506v-1.404h1.725v-4.975v-4.997h-1.725v-1.371h5.506h5.229L266.745,185.681L266.745,185.681z M281.446,195.088
			c-3.902,0-6.345-2.676-6.345-6.566c0-3.902,2.299-6.589,6.312-6.589c1.791,0,3.294,0.685,4.278,1.647v-1.448h1.437v3.858h-1.382
			c-0.851-1.703-2.41-2.565-4.245-2.565c-2.786,0-4.444,2.166-4.444,5.04c0,2.841,1.736,5.086,4.51,5.086
			c1.846,0,4.013-0.763,4.411-3.294l1.493,0.784C286.929,193.485,284.707,195.088,281.446,195.088z M286.646,156.155
			c-10.948-0.68-18.019-5.241-21.353-11.478c-26.538,9.359-45.66,23.46-75.358,49.131c-1.696,1.894-8.779,1.996-9.262-6.746
			c1.499-43.316,16.464-74.124,30.278-95.483c14.074-21.246,26.999-33.044,30.411-35.718c6.588-5.181,27.411-1.836,17.344,7.16
			c-13.654,13.025-50.611,49.54-56.868,101.889c30.317-19.307,60.685-28.811,82.149-33.006c8.565-1.674,10.724,0.017,11.506,1.516
			c0.771,1.485-0.626,3.197-5.93,4.396c-2.467,0.558-4.857,1.133-7.186,1.728c2.638,6.399,10.945,9.298,29.931,0.624
			c19.136-9.267,25.415-16.698,30.397-21.794c2.453-2.577,4.571-0.049,1.128,5.736C334.464,140.422,305.144,157.475,286.646,156.155
			z M302.06,195.088c-4.09,0-6.566-2.897-6.566-6.566c0-3.692,2.487-6.589,6.566-6.589c4.09,0,6.589,2.919,6.589,6.589
			C308.649,192.18,306.15,195.088,302.06,195.088z M328.081,194.878h-2.797l-3.129-5.948h-2.134c0,0.299,0,4.544,0,4.544
			l1.725,0.011v1.393h-5.295v-1.404h1.802v-4.975v-4.997h-1.802v-1.371c0,0,5.759,0,6.091,0c2.918,0,4.201,1.326,4.201,3.294
			c0,1.714-0.972,2.897-2.863,3.283l2.587,4.787h1.614V194.878z M341.3,194.878c-0.387,0-5.97,0-5.97,0v-1.382l1.78-0.022
			c0,0-0.022-4.632-0.022-4.975s0.022-4.964,0.022-4.964l-1.78-0.033v-1.371c0,0,5.727-0.011,6.125-0.011
			c5.052,0,6.478,3.283,6.478,6.269C347.933,192.302,346.042,194.878,341.3,194.878z M347.677,98.095
			c-2.497,3.468-5.554,6.166-8.68,8.459c-6.318,4.528-13.063,7.303-19.278,9.266c-6.233,1.947-12.036,2.968-16.96,3.531
			c-4.94,0.539-9.036,0.579-11.94,0.454c-1.526-0.075-4.958-0.457-5.227-0.516c-1.714,2.894-3.179,6.69-3.841,10.494
			c-5.707,1.181-11.992,2.73-18.695,4.719c0.626-15.104,14.376-34.377,23.384-43.278c9.533-9.019,28.647-24.134,45.924-23.913
			c17.376,0.183,19.67,11.731,19.924,13.419C353.285,87.926,352.343,91.579,347.677,98.095z M360.732,183.536h-1.459v4.964v4.986
			h1.459v1.393H356v-1.404h1.481V188.5v-4.997H356v-1.371h4.732V183.536z M364.286,146.687c-1.495-0.639-2.616-1.773-3.207-3.067
			c-0.043-0.096-0.087-0.191-0.13-0.287c-7.446-16.102-7.93-61.936,8.859-88.854c3.457-5.579,8.244-6.278,12.911-4.189
			c3.274,1.467,4.031,4.652,0.597,9.838c-5.601,8.379-8.221,14.229-10.869,25.253c-2.685,11.017-2.524,18.625-2.435,24.414
			c0.001,0.289,0.003,0.579,0.004,0.868c0.155-0.256,0.31-0.511,0.465-0.767c25.148-37.853,70.531-71.306,118.962-84.311
			c6.043-1.579,9.897-0.254,10.301,2.71c0.371,2.757-3.329,3.134-7.052,4.067c-24.983,6.278-41.855,18.481-46.236,21.244
			c-2.953,2.021-5.965,3.967-8.845,6.11c-2.932,2.072-5.79,4.251-8.65,6.441c-2.821,2.239-5.676,4.448-8.424,6.797
			c-21.376,17.562-36.327,38.06-45.298,60.569c-1.414,3.504-2.49,6.831-3.984,10.778
			C370.297,146.835,367.157,147.914,364.286,146.687z M382.507,183.536h-1.913v5.693v5.76h-1.913l-6.5-11.088v9.584h1.868v1.393
			h-5.218v-1.404h1.868v-4.975v-4.997h-1.868v-1.371h4.223l6.058,10.259v-8.866h-1.824v-1.393h5.218L382.507,183.536
			L382.507,183.536z M396.732,195.088c-5.517,0-6.732-4.091-6.732-6.622c0-2.929,1.647-6.533,6.478-6.533
			c1.791,0,3.305,0.685,4.278,1.647v-1.448h1.437v3.858h-1.371c-0.862-1.703-2.421-2.565-4.245-2.565
			c-2.941,0-4.61,2.134-4.61,5.052c0,2.908,1.647,5.086,4.776,5.086c2.918,0,4.046-1.227,4.223-3.505h-2.51v-1.404h4.499
			C402.857,193.298,400.203,195.088,396.732,195.088z M388.8,122.981c3.39-13.535,15.576-25.425,24.177-31.754
			c11.547-8.254,30.552-18.681,50.802-17.266c21.271,1.371,25.627,15.776,18.062,26.503c-2.945,4.124-6.837,7.102-10.752,9.384
			c-7.908,4.521-16.065,6.466-23.291,7.518c-7.265,1.018-13.728,1.065-19.08,0.749c-5.354-0.314-9.608-0.993-12.536-1.572
			c-1.479-0.322-5.885-1.507-6.56-1.875c-0.033,0.046-0.074,0.09-0.104,0.138c-2.286,3.337-4.148,6.85-5.233,10.928
			c-5.521,17.823,24.541,16.448,52.217,3.994c10.071-4.575,11.186-1.001,0.058,5.639c-12.199,7.196-26.287,11.331-37.667,12.899
			C404.102,150.336,382.725,146.808,388.8,122.981z M425.29,195.088c-1.261,0-2.366-0.409-3.273-1.172
			c-0.011,0-0.022,0.884-0.033,0.884c-0.044-0.022-1.459-0.033-1.459-0.033V190.6h1.426c0,0,0.022,1.051,0.022,1.172
			c0.818,1.205,1.835,1.879,3.162,1.879c1.57,0,2.565-0.995,2.565-2.244c0-1.57-1.603-1.946-3.571-2.388
			c-2.012-0.431-3.692-1.249-3.692-3.637c0-2.266,1.769-3.449,3.991-3.449c1.072,0,2.078,0.321,2.918,0.906
			c0.011,0.011,0.033-0.708,0.033-0.708h1.459v3.615h-1.426c0,0-0.022-0.885-0.022-1.017c-0.696-0.917-1.603-1.36-2.841-1.36
			c-1.647,0-2.498,0.763-2.498,1.813c0,2.598,4.322,1.558,6.368,3.515c0.708,0.674,1.106,1.669,1.106,2.687
			C429.524,193.485,427.81,195.088,425.29,195.088z M447.773,186.543h-1.448v-3.018h-2.863v4.975v4.986h1.702v1.393h-5.218v-1.404
			h1.713V188.5v-4.975h-2.929v3.018h-1.426v-4.411h5.229h5.24L447.773,186.543L447.773,186.543z M467.891,183.503l-1.647,0.033
			c0,0,0.022,6.799,0.022,7.142c0,3.183-2.111,4.411-4.599,4.411c-3.935,0-4.776-2.156-4.776-4.433c0-0.343,0.022-7.119,0.022-7.153
			h-1.658v-1.371h4.997v1.404h-1.57v7.164c0,1.935,0.995,3.007,2.852,3.007c2.255,0,2.941-1.127,2.941-3.129v-7.053h-1.57v-1.393
			h4.986V183.503z M481.508,194.878c-0.387,0-5.97,0-5.97,0v-1.382l1.78-0.022c0,0-0.022-4.632-0.022-4.975s0.022-4.964,0.022-4.964
			l-1.78-0.033v-1.371c0,0,5.727-0.011,6.125-0.011c5.052,0,6.478,3.283,6.478,6.269C488.14,192.302,486.25,194.878,481.508,194.878
			z M500.939,183.536h-1.459v4.964v4.986h1.459v1.393h-4.732v-1.404h1.481V188.5v-4.997h-1.481v-1.371h4.732V183.536z
			 M515.519,195.088c-4.09,0-6.566-2.897-6.566-6.566c0-3.692,2.487-6.589,6.566-6.589c4.09,0,6.589,2.919,6.589,6.589
			C522.107,192.18,519.609,195.088,515.519,195.088z M585.773,158.435c-12.233-5.842-54.293-22.081-115.281-10.218
			c-5.242,1.022-9.039-2.172-7.09-8.132c5.898-15.851,36.591-65.593,98.578-83.336c5.081-1.454,15.639,3.043,17.04,7.495
			c1.096,3.483-0.721,5.151-10.328,7.898c-37.81,10.812-68.76,34.901-83.182,60.4c23.36-0.851,56.312-4.379,94.933,15.697
			C590.088,153.343,590.54,160.712,585.773,158.435z M598.478,165.689c-1.237,1.461-3.317,0.813-4.962-1.126
			s-1.976-4.696-0.739-6.157s3.573-1.074,5.218,0.865C599.64,161.209,599.714,164.228,598.478,165.689z"/>
	</g>
</g>
</svg>
